<?xml version="1.0" encoding="UTF-8" standalone="no"?>
<svg
   xmlns:dc="http://purl.org/dc/elements/1.1/"
   xmlns:cc="http://creativecommons.org/ns#"
   xmlns:rdf="http://www.w3.org/1999/02/22-rdf-syntax-ns#"
   xmlns:svg="http://www.w3.org/2000/svg"
   xmlns="http://www.w3.org/2000/svg"
   xmlns:sodipodi="http://sodipodi.sourceforge.net/DTD/sodipodi-0.dtd"
   xmlns:inkscape="http://www.inkscape.org/namespaces/inkscape"
   width="500"
   height="500"
   viewBox="0 0 132.29167 132.29167"
   version="1.1"
   id="svg8"
   inkscape:version="1.0.2 (e86c870879, 2021-01-15, custom)"
   sodipodi:docname="arrow.svg">
  <defs
     id="defs2" />
  <sodipodi:namedview
     id="base"
     pagecolor="#ffffff"
     bordercolor="#666666"
     borderopacity="1.0"
     inkscape:pageopacity="0.0"
     inkscape:pageshadow="2"
     inkscape:zoom="1.979899"
     inkscape:cx="302.93316"
     inkscape:cy="194.62771"
     inkscape:document-units="mm"
     inkscape:current-layer="layer1"
     inkscape:document-rotation="0"
     showgrid="false"
     units="px"
     inkscape:window-width="1920"
     inkscape:window-height="1001"
     inkscape:window-x="-9"
     inkscape:window-y="-9"
     inkscape:window-maximized="1" />
  <metadata
     id="metadata5">
    <rdf:RDF>
      <cc:Work
         rdf:about="">
        <dc:format>image/svg+xml</dc:format>
        <dc:type
           rdf:resource="http://purl.org/dc/dcmitype/StillImage" />
        <dc:title></dc:title>
      </cc:Work>
    </rdf:RDF>
  </metadata>
  <g
     inkscape:label="Capa 1"
     inkscape:groupmode="layer"
     id="layer1">
    <path
       style="fill:#ffddd3;fill-opacity:1;stroke:#ffffff;stroke-width:0.572092"
       d="m 100.69775,42.823314 -12.563696,-0.238499 -0.38175,6.559142 c -1.71973,29.54723 -14.900321,52.456753 -37.295092,64.823473 -8.978633,4.95815 -21.698539,9.03069 -31.161819,9.97709 -3.135526,0.31358 -3.905748,0.20289 -4.827934,-0.69441 -1.325293,-1.28939 -1.422828,-3.40609 -0.208123,-4.51832 0.488985,-0.44776 3.097906,-2.14874 5.797625,-3.77998 C 45.847662,99.368571 60.811751,75.379199 61.497994,48.516536 L 61.649603,42.584815 51.282822,42.288228 C 35.292111,41.830743 37.879534,44.36851 59.178342,21.131232 66.024991,13.66145 72.642554,10.785256 73.840367,10.785256 c 1.19579,0 5.772277,-1.0824233 15.365797,8.451276 9.263006,9.205241 18.252616,17.419074 18.500526,17.839141 4.19238,7.13248 -3.57952,5.979413 -7.00894,5.747641 z"
       id="path1416"
       sodipodi:nodetypes="ccssscscccsssscc" />
  </g>
</svg>
